HIERARCHY
ROOT Root
{
	OFFSET 0.00000 0.00000 0.00000
	CHANNELS 6 Xposition Yposition Zposition Zrotation Xrotation Yrotation
	JOINT Hip
	{
		OFFSET 0 0 0	
		CHANNELS 3 Zrotation Xrotation Yrotation
		JOINT Tummy
		{
			OFFSET 0 0.04 0	
			CHANNELS 3 Zrotation Xrotation Yrotation
			JOINT ChestBottom
			{
				OFFSET 0 0.194 0	
				CHANNELS 3 Zrotation Xrotation Yrotation
				JOINT ChestTop
				{
					OFFSET 0 0.166 0	
					CHANNELS 3 Zrotation Xrotation Yrotation
					JOINT LeftCollar
					{
						OFFSET 0 0.1 0	
						CHANNELS 3 Zrotation Xrotation Yrotation
						JOINT LeftUpperArm
						{
							OFFSET 0.156 -0.02 0.03	
							CHANNELS 3 Zrotation Xrotation Yrotation
							JOINT LeftForeArm
							{
								OFFSET 0.035 -0.27 -0.01	
								CHANNELS 3 Zrotation Xrotation Yrotation
								JOINT LeftHand
								{
									OFFSET 0.01 -0.27 0.01	
									CHANNELS 3 Zrotation Xrotation Yrotation
									End Site
									{
										OFFSET 0 -0.15 0
									}
								}
							}
						}
					}
					JOINT RightCollar
					{
						OFFSET 0 0.1 0	
						CHANNELS 3 Zrotation Xrotation Yrotation
						JOINT RightUpperArm
						{
							OFFSET -0.156 -0.02 0.03	
							CHANNELS 3 Zrotation Xrotation Yrotation
							JOINT RightForeArm
							{
								OFFSET -0.035 -0.27 -0.01	
								CHANNELS 3 Zrotation Xrotation Yrotation
								JOINT RightHand
								{
									OFFSET -0.01 -0.27 0.01	
									CHANNELS 3 Zrotation Xrotation Yrotation
									End Site
									{
										OFFSET 0 -0.15 0
									}
								}
							}
						}
					}
					JOINT Neck
					{
						OFFSET 0 0.1 0	
						CHANNELS 3 Zrotation Xrotation Yrotation
						JOINT Head
						{
							OFFSET 0 0.127 0.03	
							CHANNELS 3 Zrotation Xrotation Yrotation
							End Site
							{
								OFFSET 0 0.127 0.03
							}
						}
					}
				}
			}
		}
	}
	JOINT LeftHip
	{
		OFFSET 0 0 0	
		CHANNELS 3 Zrotation Xrotation Yrotation
		JOINT LeftThigh
		{
			OFFSET 0.088 -0.06 0	
			CHANNELS 3 Zrotation Xrotation Yrotation
			JOINT LeftLowerLeg
			{
				OFFSET 0 -0.39 0.02	
				CHANNELS 3 Zrotation Xrotation Yrotation
				JOINT LeftFootTop
				{
					OFFSET 0 -0.43 -0.02	
					CHANNELS 3 Zrotation Xrotation Yrotation
					JOINT LeftFootFront
					{
						OFFSET 0 -0.07 0.085	
						CHANNELS 3 Zrotation Xrotation Yrotation
						End Site
						{
							OFFSET 0 -0.005 0.09
						}
					}
				}
				JOINT LeftHeel
				{
					OFFSET 0 -0.43 -0.02	
					CHANNELS 3 Zrotation Xrotation Yrotation
					End Site
					{
						OFFSET 0 -0.075 -0.05
					}
				}
			}
		}
	}
	JOINT RightHip
	{
		OFFSET 0 0 0	
		CHANNELS 3 Zrotation Xrotation Yrotation
		JOINT RightThigh
		{
			OFFSET -0.088 -0.06 0	
			CHANNELS 3 Zrotation Xrotation Yrotation
			JOINT RightLowerLeg
			{
				OFFSET 0 -0.39 0.02	
				CHANNELS 3 Zrotation Xrotation Yrotation
				JOINT RightFootTop
				{
					OFFSET 0 -0.43 -0.02	
					CHANNELS 3 Zrotation Xrotation Yrotation
					JOINT RightFootFront
					{
						OFFSET 0 -0.07 0.085	
						CHANNELS 3 Zrotation Xrotation Yrotation
						End Site
						{
							OFFSET 0 -0.005 0.09
						}
					}
				}
				JOINT RightHeel
				{
					OFFSET 0 -0.43 -0.02	
					CHANNELS 3 Zrotation Xrotation Yrotation
					End Site
					{
						OFFSET 0 -0.075 -0.05
					}
				}
			}
		}
	}
}
MOTION
Frames: 12
Frame Time: 0.025
0 0.95762 0 -0 0 -0 -5.3309 -0.65159 -149.91 -0.31643 0.77526 7.3818 -0.31644 0.77526 7.3818 -0.25913 0.65405 6.2004 -0 0 -0 55.532 -2.1085 0.77634 -83.928 -19.903 -42.724 -0 0 -0 -0 0 -0 -48.307 7.3578 8.8624 60.277 -20.863 23.078 -0 0 -0 -0 0 -0 -0 0 -0 -5.3309 -0.65159 -149.91 -15.332 -23.102 -10.248 -0 0 -0 -0 0 -0 -0 0 -0 -0 0 -0 -5.3309 -0.65159 -149.91 5.841 -4.6353 -3.9618 -0 0 -0 -0 0 -0 -0 0 -0 -0 0 -0 
0 0.95762 0 -0 0 -0 -5.5791 -0.56512 -149.99 -0.29824 0.88728 6.9878 -0.29824 0.88728 6.9878 -0.24328 0.74786 5.8694 -0 0 -0 54.303 -1.9882 0.29368 -86.237 -22.613 -38.458 -0 0 -0 -0 0 -0 -44.464 6.5731 6.208 61.206 -23.914 17.496 -0 0 -0 -0 0 -0 -0 0 -0 -5.5791 -0.56512 -149.99 -15.558 -23.771 -9.4835 -0 0 -0 -0 0 -0 -0 0 -0 -0 0 -0 -5.5791 -0.56512 -149.99 5.8647 -5.3057 -3.4598 -0 0 -0 -0 0 -0 -0 0 -0 -0 0 -0 
0 0.95762 0 -0 0 -0 -5.8278 -0.41172 -149.72 -0.16246 1.0093 6.3851 -0.16247 1.0093 6.3851 -0.12892 0.84911 5.3632 -0 0 -0 51.7 -1.4977 0.49835 -87.855 -25.612 -34.228 -0 0 -0 -0 0 -0 -40.075 5.6028 3.5404 61.451 -27.541 10.479 -0 0 -0 -0 0 -0 -0 0 -0 -5.8278 -0.41172 -149.72 -15.859 -24.326 -8.2373 -0 0 -0 -0 0 -0 -0 0 -0 -0 0 -0 -5.8278 -0.41172 -149.72 6.0184 -5.9394 -3.2155 -0 0 -0 -0 0 -0 -0 0 -0 -0 0 -0 
0 0.95762 0 -0 0 -0 -6.0558 -0.21489 -149.25 0.069203 1.1614 5.7085 0.069204 1.1614 5.7085 0.065913 0.97521 4.7951 -0 0 -0 47.87 -0.95701 1.562 -88.721 -28.583 -29.682 -0 0 -0 -0 0 -0 -35.375 4.4829 0.75618 61.135 -31.548 2.3698 -0 0 -0 -0 0 -0 -0 0 -0 -6.0558 -0.21489 -149.25 -16.109 -24.807 -6.7212 -0 0 -0 -0 0 -0 -0 0 -0 -0 0 -0 -6.0558 -0.21489 -149.25 6.361 -6.6863 -2.8991 -0 0 -0 -0 0 -0 -0 0 -0 -0 0 -0 
0 0.95762 0 -0 0 -0 -6.3024 0.0022568 -148.66 0.34812 1.3593 5.0265 0.34812 1.3593 5.0265 0.30045 1.1398 4.2226 -0 0 -0 42.959 -0.64652 3.4797 -88.768 -31.47 -24.397 -0 0 -0 -0 0 -0 -30.686 3.1137 -2.2141 60.42 -35.66 -6.584 -0 0 -0 -0 0 -0 -0 0 -0 -6.3024 0.0022568 -148.66 -16.285 -25.215 -5.535 -0 0 -0 -0 0 -0 -0 0 -0 -0 0 -0 -6.3024 0.0022568 -148.66 6.8558 -7.6326 -2.1573 -0 0 -0 -0 0 -0 -0 0 -0 -0 0 -0 
0 0.95762 0 -0 0 -0 -6.5621 0.26319 -147.9 0.65031 1.5641 4.3233 0.65031 1.5641 4.3233 0.5542 1.3106 3.6326 -0 0 -0 37.289 -0.72486 6.0338 -87.905 -34.291 -17.976 -0 0 -0 -0 0 -0 -26.324 1.4475 -5.3486 59.471 -39.49 -16.121 -0 0 -0 -0 0 -0 -0 0 -0 -6.5621 0.26319 -147.9 -16.337 -25.577 -5.2497 -0 0 -0 -0 0 -0 -0 0 -0 -0 0 -0 -6.5621 0.26319 -147.9 7.4265 -8.6803 -0.97883 -0 0 -0 -0 0 -0 -0 0 -0 -0 0 -0 
0 0.95762 0 -0 0 -0 -6.7092 0.58436 -146.88 1.0001 1.7549 3.6068 1.0001 1.7549 3.6068 0.84747 1.47 3.0316 -0 0 -0 31.331 -1.3229 9.0369 -86.189 -36.93 -10.218 -0 0 -0 -0 0 -0 -22.502 -0.39439 -8.8406 58.645 -42.588 -25.427 -0 0 -0 -0 0 -0 -0 0 -0 -6.7092 0.58436 -146.88 -16.076 -25.926 -5.6764 -0 0 -0 -0 0 -0 -0 0 -0 -0 0 -0 -6.7092 0.58436 -146.88 7.9664 -9.6926 0.20041 -0 0 -0 -0 0 -0 -0 0 -0 -0 0 -0 
0 0.95762 0 -0 0 -0 -6.6759 0.95959 -145.67 1.4345 1.9322 2.9485 1.4345 1.9322 2.9485 1.2117 1.6181 2.4798 -0 0 -0 25.358 -2.3988 12.307 -83.931 -39.249 -1.471 -0 0 -0 -0 0 -0 -19.282 -2.0189 -12.508 58.439 -44.96 -33.413 -0 0 -0 -0 0 -0 -0 0 -0 -6.6759 0.95959 -145.67 -15.272 -26.191 -6.0147 -0 0 -0 -0 0 -0 -0 0 -0 -0 0 -0 -6.6759 0.95959 -145.67 8.3664 -10.586 0.89424 -0 0 -0 -0 0 -0 -0 0 -0 -0 0 -0 
0 0.95762 0 -0 0 -0 -6.5148 1.3671 -144.38 1.9103 2.0926 2.4206 1.9103 2.0926 2.4206 1.6105 1.7524 2.0378 -0 0 -0 19.474 -3.8853 15.621 -81.137 -41.168 7.9961 -0 0 -0 -0 0 -0 -16.465 -3.1438 -15.7 59.117 -46.932 -39.504 -0 0 -0 -0 0 -0 -0 0 -0 -6.5148 1.3671 -144.38 -13.808 -26.218 -5.6971 -0 0 -0 -0 0 -0 -0 0 -0 -0 0 -0 -6.5148 1.3671 -144.38 8.6219 -11.381 0.80598 -0 0 -0 -0 0 -0 -0 0 -0 -0 0 -0 
0 0.95762 0 -0 0 -0 -6.3108 1.7257 -143 2.2898 2.2485 2.0531 2.2898 2.2485 2.0531 1.9287 1.8833 1.7305 -0 0 -0 13.968 -5.8189 18.686 -77.628 -42.545 18.164 -0 0 -0 -0 0 -0 -13.558 -4.001 -17.938 60.438 -48.644 -43.725 -0 0 -0 -0 0 -0 -0 0 -0 -6.3108 1.7257 -143 -11.78 -25.94 -4.7685 -0 0 -0 -0 0 -0 -0 0 -0 -0 0 -0 -6.3108 1.7257 -143 8.7961 -12.125 -0.05997 -0 0 -0 -0 0 -0 -0 0 -0 -0 0 -0 
0 0.95762 0 -0 0 -0 -6.1855 1.9181 -141.55 2.4342 2.3244 1.8234 2.4342 2.3244 1.8234 2.0495 1.9474 1.5382 -0 0 -0 9.2132 -7.8257 21.16 -73.698 -43.377 28.611 -0 0 -0 -0 0 -0 -10.25 -4.631 -18.736 62.051 -50.201 -46.123 -0 0 -0 -0 0 -0 -0 0 -0 -6.1855 1.9181 -141.55 -9.4338 -25.387 -3.5215 -0 0 -0 -0 0 -0 -0 0 -0 -0 0 -0 -6.1855 1.9181 -141.55 8.893 -12.758 -1.3591 -0 0 -0 -0 0 -0 -0 0 -0 -0 0 -0 
0 0.95762 0 -0 0 -0 -6.0992 1.8037 -140.08 2.3316 2.2188 1.6512 2.3316 2.2188 1.6512 1.9627 1.8593 1.3929 -0 0 -0 5.3837 -9.5984 22.96 -69.71 -43.851 39.144 -0 0 -0 -0 0 -0 -6.8259 -4.871 -17.769 64.021 -51.636 -46.343 -0 0 -0 -0 0 -0 -0 0 -0 -6.0992 1.8037 -140.08 -6.9046 -24.716 -2.1554 -0 0 -0 -0 0 -0 -0 0 -0 -0 0 -0 -6.0992 1.8037 -140.08 8.898 -13.27 -2.5008 -0 0 -0 -0 0 -0 -0 0 -0 -0 0 -0 
